# xmcd
#
# Track frame offsets: 
#        150
#        27242
#        51612
#        71021
#        87568
#        112200
#        135685
#        149498
#        173612
#        191318
#        207332
#        232585
#
# Disc length: 3300 seconds
#
# Revision: 4
# Processed by: cddbd v1.5.2PL0 Copyright (c) Steve Scherf et al.
# Submitted via: ExactAudioCopy v0.99pb5
#
DISCID=b00ce20c
DTITLE=Dzem - The Singles
DYEAR=2000
DGENRE=Blues
TTITLE0=Paw
TTITLE1=Whisky
TTITLE2=Dzien W Ktorym Peklo Niebo
TTITLE3=Wokol Sami Lunatycy
TTITLE4=Skazany Na Bluesa
TTITLE5=Mala Aleja Roz
TTITLE6=Czlowieku Co Sie Z Toba Dzieje
TTITLE7=Czerwony Jak Cegla
TTITLE8=Ostatni Ciezki Rok
TTITLE9=Nie Jestes Taki Jak Dawniej
TTITLE10=Naiwne Pytania
TTITLE11=Zapal Swieczke
EXTD=
EXTT0=
EXTT1=
EXTT2=
EXTT3=
EXTT4=
EXTT5=
EXTT6=
EXTT7=
EXTT8=
EXTT9=
EXTT10=
EXTT11=
PLAYORDER=
